<?xml version="1.0" standalone="no"?>
<!DOCTYPE svg PUBLIC "-//W3C//DTD SVG 20010904//EN"
 "http://www.w3.org/TR/2001/REC-SVG-20010904/DTD/svg10.dtd">
<svg version="1.0" xmlns="http://www.w3.org/2000/svg"
 width="512.000000pt" height="512.000000pt" viewBox="0 0 512.000000 512.000000"
 preserveAspectRatio="xMidYMid meet">

<g transform="translate(0.000000,512.000000) scale(0.100000,-0.100000)"
fill="#000000" stroke="none">
<path d="M3870 4970 l0 -150 190 -2 189 -3 -224 -297 c-124 -163 -225 -299
-225 -302 0 -4 218 -6 485 -6 l485 0 0 150 0 150 -185 0 c-102 0 -185 3 -185
6 0 4 336 453 443 592 7 9 -90 12 -482 12 l-491 0 0 -150z"/>
<path d="M2136 4210 c-342 -51 -507 -99 -696 -202 -433 -236 -736 -643 -842
-1132 -19 -87 -22 -131 -22 -316 0 -186 3 -229 22 -320 59 -271 170 -508 332
-712 l54 -67 55 52 c141 134 293 218 488 268 74 20 113 23 243 23 134 -1 168
-4 252 -27 175 -46 333 -134 455 -250 l61 -59 79 19 c113 26 310 24 418 -6 75
-20 206 -78 267 -118 27 -17 28 -17 59 12 54 52 181 207 232 285 101 155 195
380 231 555 17 83 89 576 84 580 -2 1 -89 -91 -194 -204 -104 -113 -224 -232
-265 -264 -98 -76 -250 -151 -374 -184 -89 -24 -118 -27 -260 -26 -141 0 -172
3 -259 26 -350 93 -631 361 -739 702 -37 119 -51 230 -44 369 9 196 62 359
168 515 73 108 117 155 304 326 83 76 163 151 180 166 l30 29 -30 -1 c-17 -1
-146 -18 -289 -39z"/>
<path d="M2670 3760 l0 -150 184 -2 185 -3 -220 -292 c-120 -161 -219 -295
-219 -298 0 -3 218 -5 485 -5 l485 0 0 150 0 150 -185 0 c-102 0 -185 2 -185
5 0 4 374 508 433 583 7 9 -89 12 -477 12 l-486 0 0 -150z"/>
<path d="M1620 1495 c-276 -62 -482 -248 -566 -510 l-22 -70 -209 -6 c-221 -6
-246 -11 -337 -64 -54 -31 -137 -118 -164 -171 -138 -270 15 -601 306 -663 38
-8 530 -11 1745 -11 1827 0 1744 -2 1849 51 114 58 214 200 239 338 40 227
-120 461 -349 510 -34 7 -185 11 -417 11 l-364 0 -12 23 c-25 48 -102 127
-166 171 -197 134 -463 139 -655 10 -28 -19 -52 -33 -53 -32 -1 2 -18 30 -38
63 -99 165 -266 291 -452 340 -85 23 -255 28 -335 10z"/>
</g>
</svg>
